<svg width="28" height="28" viewBox="0 0 28 28" fill="none" xmlns="http://www.w3.org/2000/svg">
<g id="HandsClapping" clip-path="url(#clip0_649_1753)">
<path id="Vector" d="M18.375 2.625V0.875C18.375 0.642936 18.4672 0.420376 18.6313 0.256282C18.7953 0.0921872 19.0179 0 19.25 0C19.482 0 19.7046 0.0921872 19.8687 0.256282C20.0328 0.420376 20.125 0.642936 20.125 0.875V2.625C20.125 2.85706 20.0328 3.07962 19.8687 3.24372C19.7046 3.40781 19.482 3.5 19.25 3.5C19.0179 3.5 18.7953 3.40781 18.6313 3.24372C18.4672 3.07962 18.375 2.85706 18.375 2.625ZM22.2939 4.48438C22.392 4.5443 22.5009 4.58432 22.6145 4.60213C22.728 4.61994 22.844 4.6152 22.9557 4.58819C23.0675 4.56117 23.1728 4.5124 23.2656 4.44467C23.3585 4.37693 23.4371 4.29156 23.497 4.19344L24.372 2.75953C24.4329 2.66141 24.4738 2.5522 24.4922 2.43821C24.5107 2.32422 24.5065 2.2077 24.4797 2.09536C24.4529 1.98303 24.4042 1.8771 24.3363 1.7837C24.2684 1.69029 24.1827 1.61124 24.0841 1.55112C23.9855 1.49099 23.876 1.45098 23.7618 1.43339C23.6477 1.41579 23.5312 1.42096 23.4191 1.4486C23.307 1.47624 23.2014 1.5258 23.1085 1.59443C23.0157 1.66305 22.9373 1.74938 22.8779 1.84844L22.0029 3.28125C21.943 3.37928 21.9029 3.48816 21.885 3.60168C21.8671 3.71519 21.8717 3.83113 21.8987 3.94285C21.9256 4.05457 21.9742 4.1599 22.0419 4.25281C22.1095 4.34573 22.1947 4.42442 22.2928 4.48438H22.2939ZM27.4826 5.86141C27.4114 5.64075 27.2556 5.45737 27.0492 5.35155C26.8429 5.24573 26.6031 5.22612 26.3823 5.29703L24.7417 5.8275C24.5428 5.89109 24.3732 6.02373 24.2635 6.20144C24.1539 6.37915 24.1114 6.59022 24.1437 6.79653C24.1761 7.00283 24.2812 7.19075 24.44 7.32636C24.5988 7.46196 24.8008 7.5363 25.0097 7.53594C25.101 7.53568 25.1918 7.52129 25.2787 7.49328L26.9193 6.96281C27.029 6.92737 27.1306 6.8706 27.2183 6.79576C27.306 6.72093 27.378 6.62951 27.4303 6.52676C27.4825 6.42401 27.5139 6.31195 27.5227 6.19701C27.5315 6.08208 27.5175 5.96654 27.4815 5.85703L27.4826 5.86141ZM24.2014 10.2298C25.1687 11.894 25.5581 13.8315 25.3088 15.7402C25.0595 17.6488 24.1855 19.4214 22.8233 20.7812C22.3506 22.4329 21.4023 23.9088 20.0965 25.0251C18.7907 26.1413 17.1852 26.8485 15.4802 27.0585C13.7752 27.2684 12.0461 26.9718 10.5085 26.2056C8.9709 25.4395 7.69286 24.2376 6.83372 22.75L3.0056 16.1186C2.77187 15.7132 2.6418 15.2563 2.62692 14.7886C2.61205 14.3209 2.71284 13.8567 2.92034 13.4373C3.12785 13.0178 3.43566 12.6561 3.81647 12.3841C4.19728 12.1121 4.63933 11.9383 5.10341 11.8781L4.66591 11.1191C4.4358 10.7204 4.30589 10.2719 4.28736 9.81192C4.26883 9.352 4.36222 8.89444 4.5595 8.47857C4.75679 8.06269 5.05209 7.70092 5.42002 7.42432C5.78795 7.14773 6.21753 6.96459 6.67185 6.89062C6.44393 6.26344 6.44383 5.57607 6.67158 4.94882C6.89932 4.32157 7.3404 3.79438 7.91763 3.45953C8.44685 3.1541 9.06038 3.02725 9.66733 3.09777C10.2743 3.1683 10.8424 3.43245 11.2875 3.85109C11.5604 3.45718 11.9284 3.13862 12.3573 2.92498C12.7862 2.71135 13.2622 2.60957 13.741 2.6291C14.2198 2.64863 14.6859 2.78884 15.096 3.03671C15.5061 3.28457 15.847 3.63205 16.0868 4.04688L17.3993 6.32078C17.6836 5.94891 18.0552 5.65293 18.4812 5.45911C18.9072 5.26529 19.3745 5.17962 19.8415 5.2097C20.3086 5.23978 20.761 5.38467 21.1587 5.63153C21.5563 5.8784 21.8869 6.21959 22.1211 6.62484L24.2014 10.2298ZM21.1739 20.1917C21.4145 19.3032 21.4765 18.3759 21.3563 17.4633C21.2362 16.5506 20.9363 15.6709 20.4739 14.875L18.3958 11.2755C18.2559 11.0302 18.0266 10.8484 17.7559 10.7683C17.4851 10.6882 17.1939 10.7159 16.9431 10.8456C16.6923 10.9753 16.5014 11.197 16.4103 11.4643C16.3192 11.7315 16.335 12.0236 16.4543 12.2795L17.7034 14.4375C17.7609 14.537 17.7981 14.6469 17.8131 14.7609C17.8281 14.8748 17.8205 14.9906 17.7908 15.1016C17.761 15.2126 17.7097 15.3167 17.6397 15.4078C17.5697 15.499 17.4825 15.5755 17.3829 15.633C17.2834 15.6904 17.1735 15.7277 17.0596 15.7427C16.9456 15.7577 16.8298 15.7501 16.7188 15.7203C16.6078 15.6906 16.5038 15.6392 16.4126 15.5693C16.3214 15.4993 16.2449 15.412 16.1875 15.3125L12.3593 8.69859C12.2092 8.46078 11.9731 8.28996 11.7003 8.22163C11.4274 8.1533 11.1388 8.1927 10.8942 8.33166C10.6497 8.47062 10.4681 8.69844 10.3871 8.96781C10.3061 9.23718 10.3321 9.52738 10.4595 9.77812L13.1523 14.4375C13.2134 14.5371 13.2539 14.6479 13.2715 14.7635C13.289 14.879 13.2833 14.9968 13.2546 15.1101C13.2258 15.2234 13.1747 15.3297 13.1042 15.4229C13.0337 15.5161 12.9452 15.5942 12.8441 15.6526C12.7429 15.7111 12.631 15.7487 12.5151 15.7632C12.3991 15.7777 12.2815 15.7688 12.169 15.7371C12.0565 15.7054 11.9516 15.6515 11.8603 15.5786C11.769 15.5057 11.6932 15.4152 11.6375 15.3125L8.07513 9.15031C8.00384 9.02492 7.90844 8.91487 7.79444 8.82649C7.68045 8.73811 7.55009 8.67316 7.41089 8.63536C7.27168 8.59757 7.12638 8.58769 6.98334 8.60628C6.84029 8.62487 6.70234 8.67157 6.57743 8.7437C6.45251 8.81582 6.34309 8.91194 6.25547 9.02652C6.16785 9.14111 6.10376 9.27189 6.0669 9.41134C6.03003 9.55079 6.02111 9.69616 6.04065 9.83907C6.06019 9.98199 6.1078 10.1196 6.18075 10.2441L7.93075 13.2759L10.1183 17.0647C10.1757 17.1642 10.213 17.2741 10.228 17.3881C10.243 17.502 10.2354 17.6178 10.2056 17.7288C10.1759 17.8398 10.1245 17.9439 10.0545 18.035C9.98457 18.1262 9.89732 18.2027 9.79779 18.2602C9.69825 18.3176 9.58837 18.3549 9.47442 18.3699C9.36047 18.3849 9.24469 18.3773 9.13368 18.3475C9.02267 18.3178 8.91861 18.2664 8.82744 18.1964C8.73627 18.1265 8.65977 18.0392 8.60232 17.9397L6.41482 14.1509C6.26875 13.9018 6.03005 13.7205 5.75082 13.6467C5.47159 13.5729 5.1745 13.6125 4.92437 13.7569C4.67424 13.9013 4.49139 14.1388 4.41572 14.4175C4.34004 14.6963 4.37769 14.9936 4.52044 15.2447L8.34857 21.8761C9.04077 23.0753 10.0731 24.0422 11.3149 24.6546C12.5567 25.2671 13.9522 25.4975 15.3249 25.3167C16.6977 25.1359 17.986 24.5521 19.0269 23.6391C20.0679 22.726 20.8146 21.5248 21.1728 20.1873L21.1739 20.1917Z" fill="#567BFF"/>
</g>
<defs>
<clipPath id="clip0_649_1753">
<rect width="28" height="28" fill="white"/>
</clipPath>
</defs>
</svg>
