<svg xmlns="http://www.w3.org/2000/svg" width="28" height="28" viewBox="0 0 28 28" fill="none">
<g clip-path="url(#clip0_901_692)">
<path d="M23.5 12.6329V12.6383V22.75C23.5 22.9489 23.421 23.1396 23.2803 23.2803C23.1397 23.421 22.9489 23.5 22.75 23.5H18.375C18.1761 23.5 17.9853 23.421 17.8447 23.2803C17.704 23.1396 17.625 22.9489 17.625 22.75V18.375C17.625 17.8777 17.4275 17.4008 17.0758 17.0491C16.7242 16.6975 16.2473 16.5 15.75 16.5H12.25C11.7527 16.5 11.2758 16.6975 10.9242 17.0491C10.5725 17.4008 10.375 17.8777 10.375 18.375V22.75C10.375 22.9489 10.296 23.1396 10.1553 23.2803C10.0147 23.421 9.82391 23.5 9.625 23.5H5.25C5.05109 23.5 4.86032 23.421 4.71967 23.2803C4.57902 23.1396 4.5 22.9489 4.5 22.75V12.6383V12.6381C4.49998 12.5343 4.52152 12.4316 4.56323 12.3366C4.60495 12.2415 4.66594 12.1562 4.74234 12.0859L4.7424 12.086L4.75173 12.0772L13.5017 3.82155L13.5123 3.81156L13.5144 3.80952C13.6505 3.69182 13.8246 3.62683 14.0049 3.62683C14.1846 3.62683 14.3581 3.69135 14.494 3.80825C14.501 3.81502 14.5081 3.8217 14.5153 3.82828L23.2581 12.0772L23.2619 12.0807C23.3375 12.1513 23.3977 12.2369 23.4387 12.3319L24.357 11.9359L23.4387 12.3319C23.4797 12.4269 23.5006 12.5294 23.5 12.6329ZM3.5 22.75V12.6383H24.5V22.75C24.5 23.2141 24.3156 23.6592 23.9874 23.9874C23.6592 24.3156 23.2141 24.5 22.75 24.5H18.375C17.9109 24.5 17.4658 24.3156 17.1376 23.9874C16.8094 23.6592 16.625 23.2141 16.625 22.75V18.375C16.625 18.1429 16.5328 17.9203 16.3687 17.7563C16.2046 17.5922 15.9821 17.5 15.75 17.5H12.25C12.0179 17.5 11.7954 17.5922 11.6313 17.7563C11.4672 17.9203 11.375 18.1429 11.375 18.375V22.75C11.375 23.2141 11.1906 23.6592 10.8624 23.9874C10.5342 24.3156 10.0891 24.5 9.625 24.5H5.25C4.78587 24.5 4.34075 24.3156 4.01256 23.9874C3.68437 23.6592 3.5 23.2141 3.5 22.75Z" fill="#426BFF" stroke="#426BFF" stroke-width="2"/>
</g>
<defs>
<clipPath id="clip0_901_692">
<rect width="28" height="28" fill="white"/>
</clipPath>
</defs>
</svg>