<svg xmlns="http://www.w3.org/2000/svg" width="257" height="145" viewBox="0 0 257 145" fill="none">
<path d="M0 22.2816C26.253 23.6778 80.0397 27.9522 85.2833 27.4012C93.4352 26.5447 123.032 19.0235 137.479 13.4383C151.925 7.85308 177.481 -6.10405 184.081 5.06064C191.967 18.3986 187.77 28.5712 160.922 42.0558C174.923 41.0448 200.02 42.9468 209.713 43.6915C221.83 44.6224 243.386 50.5712 245.131 59.5254C246.773 67.9496 243.733 73.9447 232.548 75.341L246.706 79.3781C256.213 82.666 262.725 97.8125 246.706 105.538C244.606 106.55 242.796 107.232 241.254 107.665C246.892 110.551 253.613 116.409 248.775 126.988C245.59 133.951 235.275 132.544 226.355 131.022C227.422 135.639 225.196 141.958 216.447 144.302C205.512 147.233 134.094 139.842 93.683 142.072C61.3544 143.856 17.7574 144.302 0 144.302V22.2816Z" fill="white"/>
</svg>