<svg width="32" height="32" viewBox="0 0 32 32" fill="none" xmlns="http://www.w3.org/2000/svg">
<g id="LockOpen" clip-path="url(#clip0_886_1994)">
<path id="Vector" d="M26 11H6C5.44772 11 5 11.4477 5 12V26C5 26.5523 5.44772 27 6 27H26C26.5523 27 27 26.5523 27 26V12C27 11.4477 26.5523 11 26 11Z" stroke="#426BFF" stroke-width="2" stroke-linecap="round" stroke-linejoin="round"/>
<path id="Vector_2" d="M16 20.5C16.8284 20.5 17.5 19.8284 17.5 19C17.5 18.1716 16.8284 17.5 16 17.5C15.1716 17.5 14.5 18.1716 14.5 19C14.5 19.8284 15.1716 20.5 16 20.5Z" fill="#426BFF"/>
<path id="Vector_3" d="M11 11V7C11 5.67392 11.5268 4.40215 12.4645 3.46447C13.4021 2.52678 14.6739 2 16 2C18.4188 2 20.5362 3.7175 21 6" stroke="#426BFF" stroke-width="2" stroke-linecap="round" stroke-linejoin="round"/>
</g>
<defs>
<clipPath id="clip0_886_1994">
<rect width="32" height="32" fill="white"/>
</clipPath>
</defs>
</svg>
