<svg width="32" height="32" viewBox="0 0 32 32" fill="none" xmlns="http://www.w3.org/2000/svg">
<g id="LockKey" clip-path="url(#clip0_886_1988)">
<path id="Vector" d="M16 20C17.3807 20 18.5 18.8807 18.5 17.5C18.5 16.1193 17.3807 15 16 15C14.6193 15 13.5 16.1193 13.5 17.5C13.5 18.8807 14.6193 20 16 20Z" stroke="#426BFF" stroke-width="2" stroke-linecap="round" stroke-linejoin="round"/>
<path id="Vector_2" d="M16 20V23" stroke="#426BFF" stroke-width="2" stroke-linecap="round" stroke-linejoin="round"/>
<path id="Vector_3" d="M26 11H6C5.44772 11 5 11.4477 5 12V26C5 26.5523 5.44772 27 6 27H26C26.5523 27 27 26.5523 27 26V12C27 11.4477 26.5523 11 26 11Z" stroke="#426BFF" stroke-width="2" stroke-linecap="round" stroke-linejoin="round"/>
<path id="Vector_4" d="M11 11V7C11 5.67392 11.5268 4.40215 12.4645 3.46447C13.4021 2.52678 14.6739 2 16 2C17.3261 2 18.5979 2.52678 19.5355 3.46447C20.4732 4.40215 21 5.67392 21 7V11" stroke="#426BFF" stroke-width="2" stroke-linecap="round" stroke-linejoin="round"/>
</g>
<defs>
<clipPath id="clip0_886_1988">
<rect width="32" height="32" fill="white"/>
</clipPath>
</defs>
</svg>
