<svg xmlns="http://www.w3.org/2000/svg" width="49" height="49" viewBox="0 0 49 49" fill="none">
<rect x="0.5" y="0.492859" width="48" height="48" rx="6.52553" fill="#426BFF"/>
<path d="M17.1399 31.8576C13.5629 26.5666 8.56998 29.6531 6.52065 31.8576C16.6742 20.0274 18.5762 23.4551 22.5096 30.7072C25.8235 36.8173 29.9151 38.4769 35.4527 34.4022C25.5914 47.52 21.6112 38.4714 17.1399 31.8576Z" fill="white"/>
<path d="M20.7027 24.1383C17.1257 18.8473 12.1328 21.9337 10.0835 24.1383C20.237 12.308 22.139 15.7358 26.0724 22.9879C29.3863 29.0979 33.4779 30.7575 39.0155 26.6829C29.1542 39.8006 25.174 30.752 20.7027 24.1383Z" fill="white"/>
<path d="M24.1666 15.6361C20.5895 10.3451 15.5966 13.4316 13.5473 15.6361C23.7008 3.80591 25.6029 7.23365 29.5362 14.4857C32.8501 20.5958 36.9417 22.2554 42.4794 18.1807C32.618 31.2985 28.6378 22.2499 24.1666 15.6361Z" fill="white"/>
</svg>