<svg width="40" height="41" viewBox="0 0 40 41" fill="none" xmlns="http://www.w3.org/2000/svg">
<g id="icon-x-mono" clip-path="url(#clip0_488_282)">
<path id="Vector" fill-rule="evenodd" clip-rule="evenodd" d="M21.4973 19.2061L21.4973 9.88242C21.4973 9.69852 21.4617 9.51641 21.3923 9.34649C21.323 9.17657 21.2214 9.02216 21.0932 8.89209C20.9651 8.76202 20.813 8.65882 20.6455 8.5884C20.4781 8.51797 20.2986 8.4817 20.1173 8.48164C19.936 8.48159 19.7565 8.51775 19.589 8.58808C19.4215 8.6584 19.2693 8.76151 19.1411 8.89151C19.0129 9.02151 18.9112 9.17585 18.8418 9.34573C18.7723 9.51561 18.7366 9.6977 18.7365 9.8816L18.7373 19.2061L9.54524 19.2061C9.18723 19.2185 8.84797 19.3715 8.59906 19.6329C8.35015 19.8942 8.21107 20.2434 8.21118 20.6069C8.21128 20.9703 8.35057 21.3194 8.59962 21.5806C8.84868 21.8418 9.18803 21.9947 9.54605 22.0068L18.7373 22.006L18.7365 31.3305C18.7375 31.6071 18.819 31.8772 18.9709 32.1068C19.1227 32.3365 19.3381 32.5155 19.59 32.6213C19.8419 32.7271 20.1189 32.755 20.3864 32.7015C20.6538 32.6479 20.8997 32.5154 21.0931 32.3205C21.3428 32.0672 21.4973 31.7174 21.4973 31.3313L21.4973 22.006L30.6885 22.0068C30.8698 22.0071 31.0494 21.9711 31.217 21.9009C31.3845 21.8306 31.5368 21.7275 31.665 21.5975C31.7932 21.4674 31.8948 21.313 31.9641 21.143C32.0333 20.973 32.0688 20.7908 32.0685 20.6069C32.0686 20.4229 32.033 20.2407 31.9636 20.0707C31.8942 19.9007 31.7925 19.7462 31.6643 19.6161C31.5361 19.486 31.3838 19.3829 31.2163 19.3125C31.0487 19.2422 30.8691 19.206 30.6877 19.2061L21.4973 19.2061Z" fill="white"/>
</g>
<defs>
<clipPath id="clip0_488_282">
<rect width="27.8007" height="27.8007" fill="white" transform="matrix(0.702002 -0.712175 0.702002 0.712175 0.505249 20.7034)"/>
</clipPath>
</defs>
</svg>
