<svg xmlns="http://www.w3.org/2000/svg" width="165" height="210" viewBox="0 0 165 210" fill="none">
<path d="M91.2572 85.3095C95.2448 84.2938 144.328 28.5011 168.371 0.731626L233.054 62.4319C215.988 79.1656 179.935 114.307 172.254 121.003C162.654 129.374 135.414 165.238 117.959 187.763C100.503 210.288 82.1157 210.431 68.9748 208.506C55.834 206.581 58.2198 193.582 64.2638 189.826C69.099 186.821 76.325 191.081 78.5842 188.578C93.8291 176.34 51.1326 159.657 45.8944 159.438C40.6561 159.219 31.2803 162.756 40.3058 173.542C49.3313 184.328 43.3065 188.919 42.2181 190.057C41.1297 191.195 30.1813 199.795 15.2532 174.673C3.31067 154.576 25.1739 141.027 37.5984 136.764C29.9219 133.968 13.5868 127.676 9.65768 124.872C4.74628 121.368 -1.05866 119.078 1.43921 109.357C3.43751 101.581 28.407 107.43 40.642 111.327C40.642 111.327 23.6871 97.2206 21.8252 95.1494C19.9633 93.0782 12.4512 87.4292 16.9815 77.1227C21.0491 67.8691 47.9823 86.0546 51.8159 88.7963C48.6963 86.028 35.0714 68.2 40.5966 60.087C46.3612 51.6227 59.1001 65.104 70.2802 77.4308C81.4603 89.7576 86.2728 86.5791 91.2572 85.3095Z" fill="white"/>
</svg>