<svg xmlns="http://www.w3.org/2000/svg" width="32" height="32" viewBox="0 0 32 32" fill="none">
<g clip-path="url(#clip0_454_2373)">
<path d="M12 27H6C5.73478 27 5.48043 26.8946 5.29289 26.7071C5.10536 26.5196 5 26.2652 5 26V20.4137C5.00012 20.1489 5.10532 19.8949 5.2925 19.7075L20.7075 4.29248C20.895 4.10508 21.1493 3.99982 21.4144 3.99982C21.6795 3.99982 21.9337 4.10508 22.1213 4.29248L27.7075 9.87498C27.8949 10.0625 28.0002 10.3167 28.0002 10.5819C28.0002 10.847 27.8949 11.1012 27.7075 11.2887L12 27Z" stroke="white" stroke-width="2" stroke-linecap="round" stroke-linejoin="round"/>
<path d="M27 27H12" stroke="white" stroke-width="2" stroke-linecap="round" stroke-linejoin="round"/>
<path d="M17 8L24 15" stroke="white" stroke-width="2" stroke-linecap="round" stroke-linejoin="round"/>
</g>
<defs>
<clipPath id="clip0_454_2373">
<rect width="32" height="32" fill="white"/>
</clipPath>
</defs>
</svg>