<svg width="29" height="29" viewBox="0 0 29 29" fill="none" xmlns="http://www.w3.org/2000/svg">
<g id="icon-x-mono">
<path id="Vector" fill-rule="evenodd" clip-rule="evenodd" d="M14.2955 12.8424L7.70263 6.24953C7.57264 6.11945 7.41829 6.01626 7.24841 5.94583C7.07853 5.87541 6.89644 5.83913 6.71255 5.83908C6.52865 5.83902 6.34654 5.87519 6.17662 5.94552C6.0067 6.01584 5.85229 6.11895 5.72222 6.24894C5.59214 6.37894 5.48895 6.53329 5.41852 6.70316C5.3481 6.87304 5.31182 7.05513 5.31177 7.23903C5.31171 7.42293 5.34788 7.60504 5.41821 7.77496C5.48853 7.94488 5.59164 8.09929 5.72163 8.22936L12.3156 14.8222L5.72163 21.4162C5.47357 21.6818 5.3384 22.0333 5.34465 22.3967C5.3509 22.7601 5.49808 23.1068 5.75513 23.3637C6.01218 23.6206 6.35898 23.7675 6.72234 23.7736C7.0857 23.7796 7.4372 23.6442 7.70263 23.396L14.2955 16.802L20.8883 23.396C21.0845 23.5909 21.334 23.7234 21.6053 23.7769C21.8767 23.8304 22.1578 23.8024 22.4133 23.6965C22.6688 23.5907 22.8873 23.4116 23.0413 23.1819C23.1953 22.9522 23.2779 22.6821 23.2788 22.4055C23.2788 22.0474 23.1423 21.6892 22.8693 21.4162L16.2753 14.8222L22.8693 8.22936C22.9996 8.09952 23.1029 7.94524 23.1735 7.77536C23.244 7.60549 23.2803 7.42337 23.2803 7.23944C23.2803 7.05551 23.244 6.87339 23.1735 6.70352C23.1029 6.53365 22.9996 6.37937 22.8693 6.24953C22.7393 6.11936 22.5849 6.0161 22.4149 5.94564C22.245 5.87519 22.0628 5.83893 21.8788 5.83893C21.6948 5.83893 21.5126 5.87519 21.3427 5.94564C21.1727 6.0161 21.0183 6.11936 20.8883 6.24953L14.2955 12.8424Z" fill="white"/>
</g>
</svg>
